# xmcd
#
# Track frame offsets: 
#        150
#        12570
#        21250
#        39953
#        55933
#        65778
#        77855
#        88690
#        97060
#        109298
#        119363
#        129295
#        145263
#        156650
#        166560
#
# Disc length: 2345 seconds
#
# Revision: 0
# Processed by: cddbd v1.5.2PL0 Copyright (c) Steve Scherf et al.
# Submitted via: ExactAudioCopy v1.2
#
DISCID=ce09270f
DTITLE=Joel Daly and the Sundowners - Above and Beyond
DYEAR=1993
DGENRE=Country
TTITLE0=I was born
TTITLE1=How the yodel was born
TTITLE2=He'll have to go
TTITLE3=Sundowners Ranch and Bar
TTITLE4=Heaven only Knows
TTITLE5=You're the lady who
TTITLE6=Above and Beyond
TTITLE7=Let the rough side drag
TTITLE8=Cowpoke
TTITLE9=Ain't that a hell of a note
TTITLE10=Why does he Yodel?
TTITLE11=Wild Flowers
TTITLE12=Do that Yodelin' Song
TTITLE13=Wonderful Time up there
TTITLE14=Tie your dreams to mine
EXTD=
EXTT0=
EXTT1=
EXTT2=
EXTT3=
EXTT4=
EXTT5=
EXTT6=
EXTT7=
EXTT8=
EXTT9=
EXTT10=
EXTT11=
EXTT12=
EXTT13=
EXTT14=
PLAYORDER=
